HIERARCHY
ROOT Hips
{
	OFFSET 0.00000 0.00000 0.00000
	CHANNELS 6 Xposition Yposition Zposition Zrotation Yrotation Xrotation 
	JOINT LHipJoint
	{
		OFFSET 0 0 0
		CHANNELS 3 Zrotation Yrotation Xrotation
		JOINT LeftHip
		{
			OFFSET 1.85742 -1.74412 1.01653
			CHANNELS 3 Zrotation Yrotation Xrotation
			JOINT LeftKnee
			{
				OFFSET 2.54803 -7.00067 0.00000
				CHANNELS 3 Zrotation Yrotation Xrotation
				JOINT LeftAnkle
				{
					OFFSET 2.51202 -6.90173 0.00000
					CHANNELS 3 Zrotation Yrotation Xrotation
					JOINT LeftToe
					{
						OFFSET 0.17547 -0.48209 1.64281
						CHANNELS 3 Zrotation Yrotation Xrotation
						End Site
						{
							OFFSET 0.00000 -0.00000 0.86587
						}
					}
				}
			}
		}
	}
	JOINT RHipJoint
	{
		OFFSET 0 0 0
		CHANNELS 3 Zrotation Yrotation Xrotation
		JOINT RightHip
		{
			OFFSET -1.95533 -1.74413 1.01654
			CHANNELS 3 Zrotation Yrotation Xrotation
			JOINT RightKnee
			{
				OFFSET -2.49465 -6.85400 0.00000
				CHANNELS 3 Zrotation Yrotation Xrotation
				JOINT RightAnkle
				{
					OFFSET -2.54783 -7.00010 0.00000
					CHANNELS 3 Zrotation Yrotation Xrotation
					JOINT RightToe
					{
						OFFSET -0.18513 -0.50864 1.69288
						CHANNELS 3 Zrotation Yrotation Xrotation
						End Site
						{
							OFFSET -0.00000 -0.00000 0.89242
						}
					}
				}
			}
		}
	}
	JOINT lowerback
	{
		OFFSET 0 0 0
		CHANNELS 3 Zrotation Yrotation Xrotation
		JOINT Chest
		{
			OFFSET 0.02173 2.16290 -0.15998
			CHANNELS 3 Zrotation Yrotation Xrotation
			JOINT Chest2
			{
				OFFSET 0.00940 2.17323 -0.00467
				CHANNELS 3 Zrotation Yrotation Xrotation
				JOINT lowerneck
				{
					OFFSET 0 0 0
					CHANNELS 3 Zrotation Yrotation Xrotation
					JOINT Neck
					{
						OFFSET 0.01475 1.85823 0.31113
						CHANNELS 3 Zrotation Yrotation Xrotation
						JOINT Head
						{
							OFFSET 0.01902 1.88783 -0.37187
							CHANNELS 3 Zrotation Yrotation Xrotation
							End Site
							{
								OFFSET 0.00489 1.93211 -0.16169
							}
						}
					}
				}
				JOINT LeftCollar
				{
					OFFSET 0 0 0
					CHANNELS 3 Zrotation Yrotation Xrotation
					JOINT LeftShoulder
					{
						OFFSET 3.34199 1.32384 -0.07862
CHANNELS 3 Zrotation Xrotation Yrotation
						JOINT LeftElbow
						{
OFFSET 0 -5.279500 0.000000
CHANNELS 3 Zrotation Xrotation Yrotation
							JOINT LeftWrist
							{
OFFSET 0 -3.535040 0.000000
CHANNELS 3 Zrotation Xrotation Yrotation
								JOINT lhand
								{
									OFFSET 0 0 0
CHANNELS 3 Zrotation Xrotation Yrotation
									JOINT LFingers
									{
OFFSET 0 -0.667950 0.000000
CHANNELS 3 Zrotation Xrotation Yrotation
										End Site
										{
OFFSET 0 -0.538520 0.000000
										}
									}
								}
								JOINT LThumb
								{
OFFSET 0 0.000000 0.000000
CHANNELS 3 Zrotation Xrotation Yrotation
									End Site
									{
OFFSET 0 -0.546740 0.546740
									}
								}
							}
						}
					}
				}
				JOINT RightCollar
				{
					OFFSET 0 0 0
					CHANNELS 3 Zrotation Yrotation Xrotation
					JOINT RightShoulder
					{
						OFFSET -3.16149 1.45719 -0.50507
CHANNELS 3 Zrotation Xrotation Yrotation
						JOINT RightElbow
						{
OFFSET 0 -5.250350 0.000000
CHANNELS 3 Zrotation Xrotation Yrotation
							JOINT RightWrist
							{
OFFSET 0 -3.588840 0.000000
CHANNELS 3 Zrotation Xrotation Yrotation
								JOINT rhand
								{
									OFFSET 0 0 0
CHANNELS 3 Zrotation Xrotation Yrotation
									JOINT RFingers
									{
OFFSET 0 -0.779240 0.000000
CHANNELS 3 Zrotation Xrotation Yrotation
										End Site
										{
OFFSET 0 -0.628240 0.000000
										}
									}
								}
								JOINT RThumb
								{
OFFSET 0 0.000000 0.000000
CHANNELS 3 Zrotation Xrotation Yrotation
									End Site
									{
OFFSET 0 -0.637830 0.637830
									}
								}
							}
						}
					}
				}
			}
		}
	}
}
MOTION
Frames: 6
Frame Time: 0.008333333333333333
-21.330500 17.495400 -2.310000 -175.238000 78.297500 -169.309000 0.000000 0.000000 0.000000 -16.962500 -24.260700 -8.103000 1.900200 8.655000 24.722000 0.374700 12.226700 -21.618500 1.367900 -7.402200 -20.912700 0.000000 0.000000 0.000000 22.649900 25.579800 0.549400 -1.079500 -6.604100 18.547700 1.177200 -32.326600 -39.972000 -2.214200 -9.298800 26.734400 -0.075900 0.249600 1.574100 1.032400 0.383000 -2.366600 1.086300 0.216000 -3.321200 -3.302300 -2.859500 -22.830900 2.701400 -3.337400 29.501800 1.071800 -1.255800 13.992600 -0.000000 0.000000 0.000000 2.297200 4.322200 -35.151600 16.767900 -26.550800 3.983000 31.316000 1.403400 -49.347900 0.000000 0.000000 0.000000 -7.125000 0.000000 0.000000 -36.817900 82.275700 31.932600 -0.000000 0.000000 0.000000 -8.649300 8.591100 26.807900 -17.685500 -27.752600 -4.401800 -16.394200 -2.692600 -18.004700 0.000000 0.000000 0.000000 7.125000 0.000000 -0.000000 7.635300 11.391500 6.032000
-21.327553 17.492353 -2.309731 -175.447289 78.254004 -169.544067 0.000000 0.000000 0.000000 -17.016687 -24.347355 -8.062961 1.912741 8.681881 24.805155 0.188722 12.807981 -20.396203 2.171788 -9.213905 -26.467759 0.000000 0.000000 0.000000 22.588278 25.523637 0.563449 -1.076084 -6.593783 18.517401 1.238414 -32.430913 -39.852346 -2.217205 -9.304019 26.751490 -0.101281 0.277427 1.561341 0.994360 0.416983 -2.332502 1.060055 0.232516 -3.279322 -3.055841 -2.589413 -22.882200 2.490519 -2.971433 29.341339 1.010811 -1.104202 13.910672 0.000000 0.000000 0.000000 2.324427 4.248527 -35.217415 16.794028 -26.585370 3.994693 31.514661 1.561520 -49.346373 0.000000 0.000000 0.000000 -7.125000 0.000000 0.000000 -36.570922 82.366145 31.773215 0.000000 0.000000 0.000000 -8.485478 8.524058 26.460586 -17.539684 -27.563772 -4.334116 -16.556347 -2.075832 -17.888989 0.000000 0.000000 0.000000 7.125000 0.000000 0.000000 7.524661 11.492103 5.927346
-21.325165 17.494017 -2.308143 -175.660947 78.238635 -169.725075 0.000000 0.000000 0.000000 -17.077397 -24.592109 -7.982133 1.913881 8.684343 24.812848 0.214885 12.884703 -20.768349 1.963458 -8.786870 -25.132626 0.000000 0.000000 0.000000 22.553092 25.515487 0.513915 -1.077159 -6.597078 18.526974 1.799981 -33.449422 -38.873262 -1.681370 -8.166275 23.221514 -0.174871 0.289087 1.518251 0.979368 0.429560 -2.329434 1.085572 0.240219 -3.252426 -2.900323 -2.374526 -22.891678 2.347452 -2.673365 29.222802 0.980746 -0.981198 13.845449 0.000000 0.000000 0.000000 2.344180 4.173275 -35.180354 16.735536 -26.507834 3.968572 31.044504 1.001373 -49.128801 0.000000 0.000000 0.000000 -7.125000 0.000000 0.000000 -35.861801 82.015474 30.914030 0.000000 0.000000 0.000000 -8.459132 8.459650 26.429639 -17.380668 -27.356818 -4.260825 -16.314971 -1.953927 -17.928666 0.000000 0.000000 0.000000 7.125000 0.000000 0.000000 7.684626 11.477961 6.057966
-21.322506 17.497236 -2.307192 -175.553245 78.236777 -169.554439 0.000000 0.000000 0.000000 -17.016315 -24.577472 -8.068205 1.915945 8.688767 24.826548 0.262066 12.476145 -20.758981 1.180898 -6.894367 -19.403901 0.000000 0.000000 0.000000 22.548781 25.537994 0.463486 -1.073447 -6.586050 18.494696 1.804596 -33.431155 -38.817645 -1.690952 -8.190022 23.292855 -0.168831 0.297919 1.466677 0.979731 0.442125 -2.356375 1.082148 0.246755 -3.251345 -2.743100 -2.215291 -23.017597 2.181018 -2.441518 29.339609 0.930916 -0.885018 13.909142 0.000000 0.000000 0.000000 2.294220 4.145094 -35.104512 16.665937 -26.415239 3.937577 31.335385 1.343512 -49.276353 0.000000 0.000000 0.000000 -7.125000 0.000000 0.000000 -36.367955 82.240726 31.509878 0.000000 0.000000 0.000000 -8.421218 8.541603 26.433870 -17.309982 -27.264632 -4.228394 -16.325412 -1.991919 -17.922490 0.000000 0.000000 0.000000 7.125000 0.000000 0.000000 7.677634 11.483190 6.051443
-21.320133 17.497155 -2.306085 -175.152576 78.211621 -169.109499 0.000000 0.000000 0.000000 -16.890339 -24.633293 -8.146410 1.925634 8.709542 24.890754 0.223071 12.595195 -20.475920 1.154926 -6.818135 -19.179654 0.000000 0.000000 0.000000 22.611594 25.537260 0.456265 -1.065615 -6.562803 18.426342 1.643190 -33.152705 -39.121031 -1.867369 -8.583203 24.500584 -0.113145 0.295830 1.409955 0.991307 0.441530 -2.355481 1.063172 0.245345 -3.218027 -2.582068 -2.066457 -23.256302 2.062749 -2.240882 29.530232 0.894314 -0.793734 14.031409 0.000000 0.000000 0.000000 2.247763 4.109839 -35.084568 16.605697 -26.335022 3.910821 31.894305 1.901399 -49.278507 0.000000 0.000000 0.000000 -7.125000 0.000000 0.000000 -35.690323 82.499587 31.077125 0.000000 0.000000 0.000000 -8.443058 8.550778 26.537648 -17.259227 -27.198174 -4.205099 -16.440035 -2.150854 -17.850686 0.000000 0.000000 0.000000 7.125000 0.000000 0.000000 7.599865 11.544028 5.979402
-21.317317 17.494394 -2.305153 -174.938895 78.148500 -168.843551 0.000000 0.000000 0.000000 -16.811929 -24.852810 -8.189481 1.939730 8.739402 24.983539 0.093970 12.961158 -19.540342 1.203993 -6.958941 -19.594792 0.000000 0.000000 0.000000 22.626841 25.498584 0.416983 -1.055797 -6.533340 18.339959 1.610970 -33.084507 -39.159834 -1.909683 -8.675163 24.784460 -0.055238 0.306577 1.333713 0.940270 0.455808 -2.355758 0.977959 0.250212 -3.174601 -2.371967 -1.921586 -23.373668 2.035812 -2.099838 29.627625 0.874905 -0.710398 14.090911 0.000000 0.000000 0.000000 2.328107 4.114055 -35.111284 16.521451 -26.222651 3.873517 31.188305 1.472021 -49.115703 0.000000 0.000000 0.000000 -7.125000 0.000000 0.000000 -35.610034 82.072933 30.729283 0.000000 0.000000 0.000000 -8.334610 8.467743 26.434443 -17.141425 -27.043828 -4.151398 -16.458778 -2.135163 -17.877792 0.000000 0.000000 0.000000 7.125000 0.000000 0.000000 7.588461 11.514309 5.974962
